# xmcd
#
# Track frame offsets:
#   187
#   15495
#   29462
#   41102
#   53220
#   68190
#   80722
#   93970
#   110172
#   121492
#   135017
#   152592
#   164877
#   179747
#   196235
#   211567
#   226062
#   241340
#   259072
#   273967
#
# Disc length: 3889 seconds
#
# Revision: 2
# Processed by: cddbd v1.5.1PL0 Copyright (c) Steve Scherf et al.
# Submitted via: Media_Universe 3.0
#
DISCID=120f2f14
DTITLE=John Conlee - 20 Greatest Hits
DYEAR=1900
DGENRE=Pop
TTITLE0=Rose Colored Grass
TTITLE1=Lady Lay Down
TTITLE2=Backside Of Thirty
TTITLE3=Before My Time
TTITLE4=Friday Night Blues
TTITLE5=She Can't Say That Anymore
TTITLE6=What I Had With You
TTITLE7=Miss Emily's Picture
TTITLE8=Busted
TTITLE9=Nothing Behind You,Nothing In Sight
TTITLE10=I Don't Remember Loving You
TTITLE11=Common Man
TTITLE12=I'm Only In It For The Love
TTITLE13=In My Eyes
TTITLE14=As Long As I'm Rockin' With You
TTITLE15=Way Back
TTITLE16=Years After You
TTITLE17=Working Man
TTITLE18=Blue Highway
TTITLE19=Old School
EXTD=
EXTT0=
EXTT1=
EXTT2=
EXTT3=
EXTT4=
EXTT5=
EXTT6=
EXTT7=
EXTT8=
EXTT9=
EXTT10=
EXTT11=
EXTT12=
EXTT13=
EXTT14=
EXTT15=
EXTT16=
EXTT17=
EXTT18=
EXTT19=
PLAYORDER=
